<svg width="24" height="24" viewBox="0 0 24 24" fill="none" xmlns="http://www.w3.org/2000/svg">
<path fill-rule="evenodd" clip-rule="evenodd" d="M7.08425 11.0847L8.55114 6.68406H10.4485L11.9154 11.0847L16.316 12.5516V14.449L11.9154 15.9159L10.4485 20.3165H8.55114L7.08425 15.9159L2.68359 14.449V12.5516L7.08425 11.0847ZM9.49982 10.1626L8.8235 12.1915L8.19105 12.824L6.1621 13.5003L8.19105 14.1766L8.8235 14.8091L9.49982 16.838L10.1761 14.8091L10.8086 14.1766L12.8375 13.5003L10.8086 12.824L10.1761 12.1915L9.49982 10.1626Z" fill="#FFFCFF"/>
<path fill-rule="evenodd" clip-rule="evenodd" d="M16.1505 5.15094L16.9306 2.81055H18.069L18.8492 5.15094L21.1896 5.93107V7.06949L18.8492 7.84963L18.069 10.19H16.9306L16.1505 7.84963L13.8101 7.06949V5.93107L16.1505 5.15094Z" fill="#FFFCFF"/>
</svg>
