<svg width="220" height="260" viewBox="0 0 220 260" fill="none" xmlns="http://www.w3.org/2000/svg">
<ellipse cx="109.5" cy="173" rx="106.5" ry="87" fill="url(#paint0_linear_1437_3377)"/>
<path d="M42.9301 111.421H39.3327C39.1559 111.421 39.019 111.266 39.0406 111.091C39.7132 105.616 39.7827 100.084 39.2477 94.5948L39.1619 93.7143C39.1369 93.4572 39.4976 93.3733 39.5887 93.6149C41.5251 98.7538 42.703 104.147 43.0852 109.626L43.191 111.141C43.2016 111.293 43.0817 111.421 42.9301 111.421Z" fill="#CCE2FF"/>
<path d="M46.0449 111.421H42.0781C41.7862 111.421 41.5608 111.164 41.5986 110.875C42.3921 104.791 43.6367 98.775 45.3222 92.8759L46.2786 89.5284C46.3588 89.2478 46.7758 89.3269 46.7477 89.6174C46.0757 96.5615 45.997 103.55 46.5123 110.508L46.5405 110.887C46.5618 111.175 46.3338 111.421 46.0449 111.421Z" fill="#CCE2FF"/>
<rect x="165.398" y="107.4" width="1.6" height="13.6" fill="#CCE2FF"/>
<path d="M172.6 108.808C172.6 111.123 169.556 113 165.8 113C162.044 113 159 111.123 159 108.808C159 106.493 162.044 97 165.8 97C169.556 97 172.6 106.493 172.6 108.808Z" fill="#CCE2FF"/>
<ellipse cx="107.386" cy="119.281" rx="19.386" ry="2.2807" fill="#CCE2FF"/>
<path d="M75.741 198.512C75.5277 198.608 75.277 198.72 74.989 198.848C74.701 198.965 74.3917 199.083 74.061 199.2V203.648C74.061 203.957 74.0343 204.203 73.981 204.384C73.9277 204.565 73.837 204.709 73.709 204.816C73.581 204.933 73.4103 205.019 73.197 205.072C72.9943 205.125 72.733 205.168 72.413 205.2L71.709 205.28L71.325 204.112L72.093 204.032C72.4237 204 72.6477 203.941 72.765 203.856C72.893 203.771 72.957 203.557 72.957 203.216V199.632C72.573 199.771 72.205 199.899 71.853 200.016C71.5117 200.133 71.2183 200.229 70.973 200.304L70.669 199.136C70.9463 199.051 71.2877 198.944 71.693 198.816C72.0983 198.677 72.5197 198.533 72.957 198.384V195.152H71.037V194.032H72.957V191.184L74.061 191.232V194.032H75.853V195.152H74.061V197.968C74.3383 197.851 74.5997 197.744 74.845 197.648C75.0903 197.552 75.3037 197.461 75.485 197.376L75.597 197.856L75.741 198.512ZM84.397 205.36C83.981 204.613 83.613 203.851 83.293 203.072C82.973 202.293 82.7063 201.435 82.493 200.496C82.2797 199.547 82.109 198.48 81.981 197.296C81.853 196.112 81.773 194.736 81.741 193.168C81.4957 193.211 81.245 193.253 80.989 193.296C80.7437 193.328 80.4983 193.36 80.253 193.392V205.456H79.117V193.52C78.8183 193.563 78.525 193.595 78.237 193.616C77.9597 193.637 77.6877 193.659 77.421 193.68V197.424C77.421 198.171 77.3943 198.885 77.341 199.568C77.2877 200.251 77.1917 200.923 77.053 201.584C76.9143 202.235 76.7223 202.88 76.477 203.52C76.2317 204.149 75.917 204.789 75.533 205.44L74.445 204.88C74.8397 204.197 75.1597 203.563 75.405 202.976C75.661 202.379 75.853 201.781 75.981 201.184C76.1197 200.587 76.2103 199.957 76.253 199.296C76.3063 198.635 76.333 197.893 76.333 197.072V192.672C76.941 192.64 77.5757 192.592 78.237 192.528C78.909 192.453 79.581 192.368 80.253 192.272C80.925 192.176 81.5757 192.069 82.205 191.952C82.8343 191.835 83.4157 191.712 83.949 191.584L84.237 192.688C84.0237 192.741 83.7943 192.795 83.549 192.848C83.3143 192.891 83.0637 192.939 82.797 192.992C82.829 194.496 82.9037 195.808 83.021 196.928C83.1383 198.048 83.3037 199.056 83.517 199.952C83.7303 200.848 83.9917 201.669 84.301 202.416C84.621 203.152 84.989 203.899 85.405 204.656L84.397 205.36ZM91.651 196.8H90.595V191.248L91.651 191.312V196.8ZM88.675 197.04H87.619V191.696L88.675 191.76V197.04ZM92.371 196.08C93.4057 195.824 94.291 195.531 95.027 195.2C94.6963 194.965 94.3817 194.715 94.083 194.448C93.795 194.171 93.5123 193.861 93.235 193.52L94.099 192.944C94.3977 193.285 94.707 193.6 95.027 193.888C95.347 194.165 95.7043 194.427 96.099 194.672C96.5363 194.427 96.9257 194.155 97.267 193.856C97.619 193.557 97.9497 193.232 98.259 192.88H92.515V191.888H99.571V192.848C98.9417 193.776 98.1257 194.565 97.123 195.216C97.6137 195.44 98.163 195.648 98.771 195.84C99.3897 196.032 100.099 196.213 100.899 196.384L100.451 197.408C99.587 197.184 98.7923 196.949 98.067 196.704C97.3523 196.459 96.6803 196.165 96.051 195.824C95.155 196.283 94.099 196.688 92.883 197.04L92.371 196.08ZM94.435 201.696V203.664C94.435 204.005 94.4083 204.283 94.355 204.496C94.3017 204.709 94.2003 204.88 94.051 205.008C93.9017 205.136 93.6937 205.227 93.427 205.28C93.171 205.344 92.835 205.387 92.419 205.408L91.603 205.472L91.187 204.288L92.115 204.224C92.5737 204.192 92.8723 204.117 93.011 204C93.1603 203.872 93.235 203.627 93.235 203.264V201.728C92.819 201.739 92.419 201.755 92.035 201.776C91.651 201.787 91.2883 201.803 90.947 201.824C90.6163 201.835 90.3177 201.851 90.051 201.872C89.795 201.883 89.587 201.893 89.427 201.904C89.3097 201.915 89.1763 201.925 89.027 201.936C88.8777 201.947 88.723 201.957 88.563 201.968C88.403 201.979 88.243 201.984 88.083 201.984C87.9337 201.984 87.8057 201.973 87.699 201.952L87.555 200.96C87.651 200.971 87.763 200.976 87.891 200.976C88.019 200.976 88.1523 200.971 88.291 200.96C88.4297 200.949 88.563 200.939 88.691 200.928C88.8297 200.917 88.947 200.901 89.043 200.88C89.6297 200.763 90.2643 200.56 90.947 200.272C91.6403 199.984 92.339 199.653 93.043 199.28L89.507 199.36C89.3577 199.36 89.1657 199.371 88.931 199.392C88.707 199.403 88.4723 199.419 88.227 199.44L88.067 198.64C88.4297 198.597 88.7017 198.565 88.883 198.544C89.0643 198.512 89.219 198.469 89.347 198.416C89.571 198.32 89.8163 198.203 90.083 198.064C90.3603 197.915 90.643 197.76 90.931 197.6C91.219 197.429 91.4963 197.259 91.763 197.088C92.0297 196.917 92.2697 196.752 92.483 196.592L93.043 197.344C92.7017 197.579 92.3497 197.803 91.987 198.016C91.635 198.219 91.3043 198.4 90.995 198.56C91.2083 198.549 91.475 198.539 91.795 198.528C92.1257 198.517 92.4563 198.512 92.787 198.512C93.1283 198.501 93.4537 198.491 93.763 198.48C94.0723 198.469 94.3177 198.464 94.499 198.464C95.0003 198.176 95.4697 197.893 95.907 197.616C96.355 197.339 96.755 197.077 97.107 196.832L97.779 197.664C97.3203 197.973 96.8297 198.283 96.307 198.592C95.795 198.891 95.2723 199.179 94.739 199.456C94.2163 199.733 93.6883 199.995 93.155 200.24C92.6323 200.475 92.131 200.683 91.651 200.864C91.9817 200.853 92.3977 200.843 92.899 200.832C93.411 200.811 93.9443 200.795 94.499 200.784C95.0537 200.763 95.5977 200.747 96.131 200.736C96.675 200.715 97.1497 200.693 97.555 200.672C97.3203 200.48 97.0963 200.304 96.883 200.144C96.6697 199.984 96.4777 199.845 96.307 199.728L96.947 198.976C97.1603 199.104 97.411 199.28 97.699 199.504C97.987 199.717 98.2803 199.952 98.579 200.208C98.8777 200.453 99.1603 200.699 99.427 200.944C99.6937 201.189 99.9177 201.403 100.099 201.584L99.475 202.512C99.3577 202.373 99.2243 202.229 99.075 202.08C98.9363 201.931 98.7817 201.776 98.611 201.616L94.435 201.696ZM96.195 202.128C96.483 202.224 96.8297 202.352 97.235 202.512C97.651 202.672 98.0777 202.853 98.515 203.056C98.9523 203.259 99.3737 203.467 99.779 203.68C100.195 203.883 100.542 204.08 100.819 204.272L100.339 205.232C100.03 205.029 99.667 204.821 99.251 204.608C98.835 204.395 98.4083 204.192 97.971 204C97.5443 203.797 97.123 203.616 96.707 203.456C96.3017 203.296 95.955 203.168 95.667 203.072L96.195 202.128ZM91.427 203.104C91.171 203.285 90.851 203.483 90.467 203.696C90.083 203.899 89.683 204.101 89.267 204.304C88.851 204.517 88.4403 204.715 88.035 204.896C87.6403 205.077 87.3043 205.227 87.027 205.344L86.531 204.304C86.7977 204.208 87.1283 204.08 87.523 203.92C87.9177 203.749 88.323 203.563 88.739 203.36C89.155 203.157 89.5497 202.955 89.923 202.752C90.307 202.539 90.6217 202.347 90.867 202.176L91.427 203.104ZM110.585 195.536H106.985V194.608H110.585V193.312H107.593V192.4H110.585V191.056L111.657 191.088V192.4H115.049V194.608H116.393V195.536H115.049V197.76H111.657V199.024H115.465V199.952H111.657V201.2H116.025V202.128H111.657V203.6H110.585V202.128H106.729V201.2H110.585V199.952H107.481V199.024H110.585V197.76H107.577V196.832H110.585V195.536ZM110.041 204.016C111.108 204.037 112.185 204.048 113.273 204.048C114.372 204.048 115.47 204.027 116.569 203.984L116.377 205.072C115.342 205.093 114.281 205.104 113.193 205.104C112.105 205.104 111.044 205.093 110.009 205.072C108.942 205.051 107.977 204.907 107.113 204.64C106.26 204.373 105.502 203.877 104.841 203.152C104.585 203.557 104.292 203.963 103.961 204.368C103.641 204.773 103.278 205.2 102.873 205.648L102.025 204.784C102.462 204.379 102.852 203.968 103.193 203.552C103.545 203.125 103.86 202.688 104.137 202.24C103.86 201.813 103.604 201.328 103.369 200.784C103.145 200.24 102.937 199.621 102.745 198.928L103.609 198.624C103.769 199.168 103.934 199.659 104.105 200.096C104.286 200.533 104.473 200.923 104.665 201.264C104.91 200.731 105.118 200.176 105.289 199.6C105.46 199.013 105.604 198.389 105.721 197.728H102.953V196.72C103.422 196.208 103.87 195.664 104.297 195.088C104.734 194.512 105.156 193.92 105.561 193.312H102.681V192.304H106.825V193.328C106.43 193.936 106.014 194.523 105.577 195.088C105.15 195.653 104.697 196.192 104.217 196.704H106.793V197.68C106.644 198.608 106.457 199.44 106.233 200.176C106.009 200.912 105.716 201.616 105.353 202.288C105.641 202.629 105.95 202.912 106.281 203.136C106.612 203.349 106.969 203.52 107.353 203.648C107.748 203.776 108.164 203.867 108.601 203.92C109.049 203.973 109.529 204.005 110.041 204.016ZM111.657 194.608H114.041V193.312H111.657V194.608ZM114.041 195.536H111.657V196.832H114.041V195.536ZM121.663 195.152C121.524 194.928 121.364 194.683 121.183 194.416C121.002 194.149 120.81 193.883 120.607 193.616C120.404 193.339 120.196 193.072 119.983 192.816C119.77 192.549 119.562 192.315 119.359 192.112L120.239 191.392C120.431 191.573 120.634 191.787 120.847 192.032C121.071 192.267 121.29 192.512 121.503 192.768C121.727 193.024 121.935 193.28 122.127 193.536C122.319 193.792 122.479 194.016 122.607 194.208L121.663 195.152ZM125.807 194C125.807 194.245 125.775 194.507 125.711 194.784C125.658 195.061 125.551 195.344 125.391 195.632C125.242 195.92 125.034 196.208 124.767 196.496C124.5 196.784 124.164 197.056 123.759 197.312L122.863 196.416C123.226 196.181 123.519 195.957 123.743 195.744C123.967 195.531 124.138 195.312 124.255 195.088C124.383 194.864 124.463 194.624 124.495 194.368C124.538 194.112 124.559 193.824 124.559 193.504V191.952H129.999V194.592C129.999 194.901 130.047 195.109 130.143 195.216C130.25 195.323 130.474 195.381 130.815 195.392H132.271L132.127 196.512H130.415C129.807 196.512 129.375 196.405 129.119 196.192C128.863 195.979 128.735 195.627 128.735 195.136V193.024H125.807V194ZM124.031 202.448L121.375 204.512C121.268 204.597 121.151 204.688 121.023 204.784C120.906 204.891 120.756 205.024 120.575 205.184L119.791 204.272C120.015 204.048 120.154 203.883 120.207 203.776C120.271 203.659 120.303 203.504 120.303 203.312V197.408H118.127V196.288H121.519V202.944C121.53 202.933 121.626 202.859 121.807 202.72C121.999 202.571 122.212 202.405 122.447 202.224C122.682 202.032 122.9 201.856 123.103 201.696C123.306 201.536 123.434 201.435 123.487 201.392L124.031 202.448ZM131.887 205.664C130.916 205.301 130.058 204.912 129.311 204.496C128.564 204.091 127.903 203.653 127.327 203.184C126.73 203.653 126.052 204.096 125.295 204.512C124.548 204.928 123.69 205.307 122.719 205.648L122.079 204.56C122.996 204.272 123.812 203.952 124.527 203.6C125.242 203.248 125.887 202.864 126.463 202.448C125.919 201.925 125.45 201.387 125.055 200.832C124.66 200.277 124.298 199.707 123.967 199.12L124.895 198.608H123.471V197.488H130.895L130.879 198.608C130.612 199.237 130.266 199.872 129.839 200.512C129.423 201.152 128.89 201.781 128.239 202.4C128.783 202.795 129.402 203.168 130.095 203.52C130.788 203.861 131.604 204.192 132.543 204.512L131.887 205.664ZM125.007 198.608C125.338 199.195 125.684 199.744 126.047 200.256C126.42 200.757 126.863 201.237 127.375 201.696C127.855 201.248 128.276 200.768 128.639 200.256C129.012 199.744 129.348 199.195 129.647 198.608H125.007ZM146.981 200.896H141.605V205.6H140.325V200.896H134.997V194.128H140.325V191.024L141.605 191.088V194.128H146.981V200.896ZM140.325 199.712V195.312H136.245V199.712H140.325ZM145.749 195.312H141.605V199.712H145.749V195.312Z" fill="#646A73"/>
<path d="M142.648 47.1083C142.543 47.1788 142.462 47.279 142.414 47.396L142.097 48.1597C141.566 49.4529 140.559 50.4931 139.283 51.0655L138.386 51.4655C138.271 51.5184 138.173 51.6033 138.105 51.7099C138.036 51.8166 138 51.9406 138 52.0673C138 52.194 138.036 52.318 138.105 52.4246C138.173 52.5313 138.271 52.6161 138.386 52.6691L139.336 53.0915C140.579 53.6497 141.569 54.6534 142.109 55.9049L142.418 56.6111C142.466 56.7262 142.547 56.8246 142.651 56.8939C142.755 56.9631 142.877 57 143.002 57C143.127 57 143.249 56.9631 143.353 56.8939C143.457 56.8246 143.538 56.7262 143.586 56.6111L143.893 55.9036C144.434 54.6524 145.424 53.6492 146.668 53.0915L147.616 52.6691C147.73 52.616 147.828 52.5312 147.896 52.4246C147.964 52.3181 148 52.1943 148 52.0679C148 51.9415 147.964 51.8177 147.896 51.7112C147.828 51.6047 147.73 51.5198 147.616 51.4667L146.719 51.0668C145.444 50.4935 144.437 49.4524 143.907 48.1584L143.589 47.396C143.542 47.279 143.461 47.1788 143.356 47.1083C143.252 47.0377 143.128 47 143.002 47C142.876 47 142.752 47.0377 142.648 47.1083Z" fill="#CCE2FF"/>
<path d="M151.324 42.0541C151.271 42.0894 151.231 42.1395 151.207 42.198L151.048 42.5798C150.783 43.2265 150.279 43.7465 149.642 44.0328L149.193 44.2327C149.135 44.2592 149.087 44.3016 149.052 44.355C149.018 44.4083 149 44.4703 149 44.5336C149 44.597 149.018 44.659 149.052 44.7123C149.087 44.7657 149.135 44.8081 149.193 44.8345L149.668 45.0458C150.29 45.3249 150.785 45.8267 151.055 46.4524L151.209 46.8055C151.233 46.8631 151.274 46.9123 151.326 46.9469C151.378 46.9815 151.439 47 151.501 47C151.563 47 151.624 46.9815 151.676 46.9469C151.728 46.9123 151.769 46.8631 151.793 46.8055L151.947 46.4518C152.217 45.8262 152.712 45.3246 153.334 45.0458L153.808 44.8345C153.865 44.808 153.914 44.7656 153.948 44.7123C153.982 44.6591 154 44.5972 154 44.534C154 44.4707 153.982 44.4089 153.948 44.3556C153.914 44.3023 153.865 44.2599 153.808 44.2334L153.36 44.0334C152.722 43.7467 152.219 43.2262 151.953 42.5792L151.795 42.198C151.771 42.1395 151.73 42.0894 151.678 42.0541C151.626 42.0188 151.564 42 151.501 42C151.438 42 151.376 42.0188 151.324 42.0541Z" fill="#CCE2FF"/>
<path d="M53.2534 77.0758C53.1801 77.1252 53.1232 77.1953 53.0901 77.2772L52.8678 77.8118C52.4961 78.717 51.7911 79.4451 50.8982 79.8459L50.2699 80.1258C50.1894 80.1629 50.1211 80.2223 50.0733 80.2969C50.0254 80.3716 50 80.4584 50 80.5471C50 80.6358 50.0254 80.7226 50.0733 80.7973C50.1211 80.8719 50.1894 80.9313 50.2699 80.9684L50.935 81.2641C51.8056 81.6548 52.4983 82.3574 52.8766 83.2334L53.0927 83.7277C53.1264 83.8084 53.1831 83.8773 53.2558 83.9257C53.3285 83.9741 53.414 84 53.5013 84C53.5887 84 53.6742 83.9741 53.7469 83.9257C53.8196 83.8773 53.8763 83.8084 53.91 83.7277L54.1252 83.2326C54.5039 82.3567 55.1969 81.6544 56.0677 81.2641L56.731 80.9684C56.8113 80.9312 56.8793 80.8718 56.927 80.7973C56.9747 80.7227 57 80.636 57 80.5475C57 80.459 56.9747 80.3724 56.927 80.2978C56.8793 80.2233 56.8113 80.1639 56.731 80.1267L56.1036 79.8468C55.2107 79.4454 54.506 78.7167 54.1349 77.8109L53.9126 77.2772C53.8795 77.1953 53.8226 77.1252 53.7493 77.0758C53.6761 77.0264 53.5897 77 53.5013 77C53.413 77 53.3266 77.0264 53.2534 77.0758Z" fill="#CCE2FF"/>
<path fill-rule="evenodd" clip-rule="evenodd" d="M102.84 37L104.443 44.1317C107.291 44.7335 109.967 45.798 112.388 47.2423L118.669 42.9309L125.345 49.5723L121.235 55.9529C122.561 58.1026 123.581 60.4595 124.235 62.9633L132 64.4102V73.6484L124.407 75.3364C123.742 78.214 122.595 80.9086 121.057 83.332L125.481 90.1994L118.805 96.8408L111.922 92.1161L112.131 91.9094C109.778 93.2767 107.19 94.2878 104.443 94.8683L102.84 102H93.5536L92.1467 94.5289C89.8994 93.9214 87.7728 93.0224 85.8105 91.8752L79.2028 96.4104L72.5266 89.769L76.8102 83.1199C75.3383 80.7517 74.2387 78.1303 73.5928 75.3364L66 73.6484V64.4102L73.7651 62.9633C74.3734 60.6327 75.2994 58.4295 76.4942 56.4021L72.094 49.5723L78.7701 42.9309L85.3135 47.4228C87.412 46.1326 89.7083 45.1303 92.1467 44.4711L93.5536 37H102.84ZM99 58.0101C92.4389 58.0101 87.12 63.3013 87.12 69.8283C87.12 76.3553 92.4389 81.6465 99 81.6465C105.561 81.6465 110.88 76.3553 110.88 69.8283C110.88 63.3013 105.561 58.0101 99 58.0101Z" fill="#9DC2FC"/>
<foreignObject x="100" y="63" width="59" height="58"><div xmlns="http://www.w3.org/1999/xhtml" style="backdrop-filter:blur(5px);clip-path:url(#bgblur_0_1437_3377_clip_path);height:100%;width:100%"></div></foreignObject><path data-figma-bg-blur-radius="10" fill-rule="evenodd" clip-rule="evenodd" d="M131.769 73L132.716 77.1693C134.399 77.5211 135.981 78.1434 137.411 78.9878L141.123 76.4673L145.068 80.3499L142.639 84.0801C143.423 85.3369 144.025 86.7148 144.412 88.1786L149 89.0244V94.4252L144.513 95.4121C144.12 97.0943 143.443 98.6696 142.533 100.086L145.148 104.101L141.203 107.984L137.136 105.222L137.259 105.101C135.869 105.9 134.34 106.491 132.716 106.831L131.769 111H126.282L125.45 106.632C124.122 106.277 122.866 105.752 121.706 105.081L117.802 107.732L113.857 103.85L116.388 99.9624C115.518 98.5779 114.868 97.0454 114.487 95.4121L110 94.4252V89.0244L114.588 88.1786C114.948 86.8161 115.495 85.528 116.201 84.3428L113.601 80.3499L117.546 76.4673L121.413 79.0934C122.653 78.3391 124.009 77.7531 125.45 77.3677L126.282 73H131.769ZM129.5 85.2828C125.623 85.2828 122.48 88.3761 122.48 92.1919C122.48 96.0077 125.623 99.101 129.5 99.101C133.377 99.101 136.52 96.0077 136.52 92.1919C136.52 88.3761 133.377 85.2828 129.5 85.2828Z" fill="#C7DFFF" fill-opacity="0.8"/>
<defs>
<clipPath id="bgblur_0_1437_3377_clip_path" transform="translate(-100 -63)"><path fill-rule="evenodd" clip-rule="evenodd" d="M131.769 73L132.716 77.1693C134.399 77.5211 135.981 78.1434 137.411 78.9878L141.123 76.4673L145.068 80.3499L142.639 84.0801C143.423 85.3369 144.025 86.7148 144.412 88.1786L149 89.0244V94.4252L144.513 95.4121C144.12 97.0943 143.443 98.6696 142.533 100.086L145.148 104.101L141.203 107.984L137.136 105.222L137.259 105.101C135.869 105.9 134.34 106.491 132.716 106.831L131.769 111H126.282L125.45 106.632C124.122 106.277 122.866 105.752 121.706 105.081L117.802 107.732L113.857 103.85L116.388 99.9624C115.518 98.5779 114.868 97.0454 114.487 95.4121L110 94.4252V89.0244L114.588 88.1786C114.948 86.8161 115.495 85.528 116.201 84.3428L113.601 80.3499L117.546 76.4673L121.413 79.0934C122.653 78.3391 124.009 77.7531 125.45 77.3677L126.282 73H131.769ZM129.5 85.2828C125.623 85.2828 122.48 88.3761 122.48 92.1919C122.48 96.0077 125.623 99.101 129.5 99.101C133.377 99.101 136.52 96.0077 136.52 92.1919C136.52 88.3761 133.377 85.2828 129.5 85.2828Z"/>
</clipPath><linearGradient id="paint0_linear_1437_3377" x1="109.957" y1="36.5" x2="109.78" y2="173" gradientUnits="userSpaceOnUse">
<stop stop-color="#7BB4FF" stop-opacity="0.58"/>
<stop offset="1" stop-color="white" stop-opacity="0"/>
</linearGradient>
</defs>
</svg>
