<svg width="220" height="260" viewBox="0 0 220 260" fill="none" xmlns="http://www.w3.org/2000/svg">
<ellipse cx="109.5" cy="173" rx="106.5" ry="87" fill="url(#paint0_linear_1437_2950)"/>
<path d="M42.9301 111.421H39.3327C39.1559 111.421 39.019 111.266 39.0406 111.091C39.7132 105.616 39.7827 100.084 39.2477 94.5948L39.1619 93.7143C39.1369 93.4572 39.4976 93.3733 39.5887 93.6149C41.5251 98.7538 42.703 104.147 43.0852 109.626L43.191 111.141C43.2016 111.293 43.0817 111.421 42.9301 111.421Z" fill="#CCE2FF"/>
<path d="M46.0449 111.421H42.0781C41.7862 111.421 41.5608 111.164 41.5986 110.875C42.3921 104.791 43.6367 98.775 45.3222 92.8759L46.2786 89.5284C46.3588 89.2478 46.7758 89.3269 46.7477 89.6174C46.0757 96.5615 45.997 103.55 46.5123 110.508L46.5405 110.887C46.5618 111.175 46.3338 111.421 46.0449 111.421Z" fill="#CCE2FF"/>
<rect x="165.398" y="107.4" width="1.6" height="13.6" fill="#CCE2FF"/>
<path d="M172.6 108.808C172.6 111.123 169.556 113 165.8 113C162.044 113 159 111.123 159 108.808C159 106.493 162.044 97 165.8 97C169.556 97 172.6 106.493 172.6 108.808Z" fill="#CCE2FF"/>
<g clip-path="url(#clip0_1437_2950)">
<path fill-rule="evenodd" clip-rule="evenodd" d="M70.5195 45.7979L100.351 90.8982L145.448 46.0583L106.828 33.976L70.5195 45.7979Z" fill="#A6CAFA"/>
<mask id="mask0_1437_2950" style="mask-type:alpha" maskUnits="userSpaceOnUse" x="70" y="33" width="76" height="58">
<path fill-rule="evenodd" clip-rule="evenodd" d="M70.5195 45.7979L100.351 90.8982L145.448 46.0583L106.828 33.976L70.5195 45.7979Z" fill="#69AAFF"/>
</mask>
<g mask="url(#mask0_1437_2950)">
<path fill-rule="evenodd" clip-rule="evenodd" d="M106.871 28.1432L106.871 82.3052L139.054 92.5126L154.526 44.4959L106.871 28.1432Z" fill="#C5DEFF"/>
</g>
<foreignObject x="64.3819" y="5.49483" width="82.5449" height="75.6477"><div xmlns="http://www.w3.org/1999/xhtml" style="backdrop-filter:blur(7.62px);clip-path:url(#bgblur_1_1437_2950_clip_path);height:100%;width:100%"></div></foreignObject><g filter="url(#filter0_d_1437_2950)" data-figma-bg-blur-radius="15.2392">
<path d="M124.695 20.7539L81.1454 27.0814C80.1792 27.2218 79.5216 28.0793 79.6328 29.0536L83.5295 63.182C83.6407 64.1563 84.4837 64.9221 85.4684 64.9434L129.85 65.9028C130.957 65.9267 131.8 65.0074 131.675 63.9116L126.946 22.4962C126.821 21.4004 125.782 20.596 124.695 20.7539Z" fill="#91B8FF" fill-opacity="0.5" shape-rendering="crispEdges"/>
<path d="M124.7 20.7847C125.769 20.6295 126.791 21.4206 126.914 22.4981L131.643 63.9136C131.766 64.9912 130.937 65.8952 129.848 65.8717L85.4673 64.9124C84.4992 64.8915 83.6702 64.1382 83.5607 63.1803L79.664 29.0515C79.5547 28.0935 80.2014 27.2502 81.1514 27.1121L124.7 20.7847Z" stroke="white" stroke-opacity="0.08" stroke-width="0.0628465" shape-rendering="crispEdges"/>
</g>
<path d="M111.315 42.0398L101.473 37.2759C99.3555 36.2757 97.1005 37.8251 97.3566 40.0683L98.5732 50.7237C98.8294 52.9669 101.389 54.0812 103.265 52.9784L111.891 47.087C113.594 45.7124 113.274 42.9084 111.315 42.0398Z" fill="url(#paint1_linear_1437_2950)" fill-opacity="0.9"/>
<foreignObject x="54.0772" y="48.4979" width="63.4472" height="76.2264"><div xmlns="http://www.w3.org/1999/xhtml" style="backdrop-filter:blur(7.62px);clip-path:url(#bgblur_2_1437_2950_clip_path);height:100%;width:100%"></div></foreignObject><path data-figma-bg-blur-radius="15.2392" fill-rule="evenodd" clip-rule="evenodd" d="M69.3164 63.9444V94.4085L102.121 109.485L102.285 63.7372L69.3164 63.9444Z" fill="#C7DFFF"/>
<foreignObject x="86.8819" y="48.4461" width="76.041" height="76.2782"><div xmlns="http://www.w3.org/1999/xhtml" style="backdrop-filter:blur(7.62px);clip-path:url(#bgblur_3_1437_2950_clip_path);height:100%;width:100%"></div></foreignObject><g filter="url(#filter2_di_1437_2950)" data-figma-bg-blur-radius="15.2392">
<path fill-rule="evenodd" clip-rule="evenodd" d="M102.121 109.485L102.121 63.6853L147.685 64.4106L147.109 93.8903L102.121 109.485Z" fill="#D4E5FF"/>
</g>
<foreignObject x="43.6631" y="30.2608" width="73.9003" height="68.0405"><div xmlns="http://www.w3.org/1999/xhtml" style="backdrop-filter:blur(7.62px);clip-path:url(#bgblur_4_1437_2950_clip_path);height:100%;width:100%"></div></foreignObject><g filter="url(#filter3_di_1437_2950)" data-figma-bg-blur-radius="15.2392">
<path fill-rule="evenodd" clip-rule="evenodd" d="M70.4982 45.5001L58.9023 65.2914L90.1838 83.0621L102.326 63.0118L70.4982 45.5001Z" fill="#D5E7FF"/>
</g>
<foreignObject x="87.0459" y="30.7608" width="80.6113" height="71.1672"><div xmlns="http://www.w3.org/1999/xhtml" style="backdrop-filter:blur(7.62px);clip-path:url(#bgblur_5_1437_2950_clip_path);height:100%;width:100%"></div></foreignObject><g filter="url(#filter4_di_1437_2950)" data-figma-bg-blur-radius="15.2392">
<path fill-rule="evenodd" clip-rule="evenodd" d="M145.499 46.0001L102.285 62.96L107.06 86.6888L152.418 66.0685L145.499 46.0001Z" fill="#DDECFF"/>
</g>
<g clip-path="url(#clip6_1437_2950)">
<path d="M156.783 15.6754C156.708 15.9357 156.584 16.2665 156.445 16.4856C155.14 18.5273 151.434 18.4202 148.179 16.3408C144.86 14.2202 143.315 10.8718 144.574 8.90197C144.714 8.68289 144.964 8.43318 145.167 8.25409C143.645 8.10378 142.432 8.45651 141.872 9.33281C140.661 11.229 143.081 15.0361 147.294 17.727C151.506 20.418 155.931 21.088 157.189 19.1182C157.749 18.2419 157.513 17.0647 156.783 15.6754Z" fill="#CCE2FF"/>
<path d="M152.375 9.77567C155.182 11.5693 156.641 14.3497 155.615 15.955C154.59 17.5604 151.454 17.4052 148.646 15.6116C145.839 13.818 144.38 11.0376 145.405 9.43225C146.431 7.82691 149.503 7.94092 152.375 9.77567Z" fill="#CCE2FF"/>
<path d="M151.469 27.5445C151.383 27.6196 151.312 27.7088 151.259 27.8068C151.205 27.9048 151.171 28.0098 151.157 28.1157C151.143 28.2217 151.151 28.3265 151.179 28.4242C151.207 28.5219 151.256 28.6107 151.322 28.6853C151.388 28.7599 151.47 28.819 151.563 28.8592C151.656 28.8994 151.76 28.9199 151.866 28.9195C151.973 28.9191 152.082 28.8979 152.185 28.857C152.289 28.8161 152.387 28.7563 152.472 28.6811C152.557 28.606 152.628 28.5168 152.682 28.4188C152.735 28.3208 152.77 28.2158 152.784 28.1099C152.797 28.0039 152.79 27.8991 152.761 27.8014C152.733 27.7037 152.685 27.615 152.619 27.5403C152.553 27.4657 152.471 27.4066 152.377 27.3664C152.284 27.3262 152.181 27.3057 152.074 27.3061C151.967 27.3065 151.859 27.3278 151.755 27.3686C151.651 27.4095 151.554 27.4693 151.469 27.5445Z" fill="#CCE2FF"/>
<path d="M134.507 17.0302C134.383 17.2235 134.332 17.452 134.365 17.6652C134.397 17.8785 134.511 18.0591 134.68 18.1673C134.849 18.2756 135.061 18.3026 135.268 18.2424C135.475 18.1822 135.661 18.0398 135.785 17.8464C135.908 17.6531 135.959 17.4246 135.927 17.2114C135.894 16.9981 135.781 16.8175 135.611 16.7093C135.442 16.601 135.23 16.574 135.023 16.6342C134.816 16.6944 134.63 16.8368 134.507 17.0302Z" fill="#CCE2FF"/>
<path d="M151.988 22.4664C151.816 22.6182 151.704 22.8237 151.676 23.0377C151.649 23.2516 151.708 23.4565 151.841 23.6072C151.974 23.758 152.17 23.8422 152.386 23.8414C152.602 23.8406 152.819 23.7549 152.991 23.6031C153.163 23.4512 153.276 23.2457 153.303 23.0318C153.331 22.8179 153.271 22.613 153.138 22.4623C153.005 22.3115 152.809 22.2273 152.594 22.2281C152.378 22.2288 152.16 22.3146 151.988 22.4664Z" fill="#CCE2FF"/>
<path d="M138.702 14.2339C138.641 14.3297 138.597 14.435 138.573 14.544C138.548 14.6529 138.544 14.7634 138.56 14.869C138.576 14.9745 138.612 15.0732 138.666 15.1594C138.72 15.2455 138.791 15.3175 138.875 15.3711C138.959 15.4247 139.054 15.4589 139.155 15.4717C139.256 15.4846 139.361 15.4759 139.463 15.4461C139.566 15.4163 139.664 15.366 139.753 15.2981C139.842 15.2301 139.919 15.1459 139.98 15.0501C140.103 14.8568 140.155 14.6284 140.122 14.4151C140.09 14.2019 139.976 14.0212 139.807 13.913C139.637 13.8048 139.426 13.7778 139.219 13.8379C139.012 13.8981 138.826 14.0406 138.702 14.2339Z" fill="#CCE2FF"/>
<path d="M142.206 17.4427C142.083 17.6361 142.031 17.8645 142.064 18.0778C142.096 18.291 142.21 18.4716 142.379 18.5799C142.549 18.6881 142.76 18.7151 142.967 18.6549C143.174 18.5947 143.36 18.4523 143.484 18.2589C143.607 18.0656 143.658 17.8372 143.626 17.6239C143.594 17.4107 143.48 17.23 143.311 17.1218C143.141 17.0136 142.93 16.9866 142.723 17.0467C142.515 17.1069 142.33 17.2494 142.206 17.4427Z" fill="#CCE2FF"/>
<path d="M138.132 21.0043C138.008 21.1977 137.957 21.4261 137.99 21.6393C138.022 21.8526 138.136 22.0332 138.305 22.1414C138.474 22.2497 138.686 22.2767 138.893 22.2165C139.1 22.1563 139.286 22.0139 139.41 21.8205C139.471 21.7248 139.515 21.6194 139.539 21.5105C139.564 21.4015 139.568 21.2911 139.552 21.1855C139.536 21.0799 139.5 20.9812 139.445 20.8951C139.391 20.8089 139.32 20.737 139.236 20.6834C139.153 20.6298 139.057 20.5956 138.957 20.5827C138.856 20.5698 138.751 20.5785 138.648 20.6083C138.546 20.6381 138.447 20.6884 138.359 20.7564C138.27 20.8243 138.193 20.9086 138.132 21.0043Z" fill="#CCE2FF"/>
<path d="M145.816 21.2248C145.692 21.4182 145.641 21.6466 145.673 21.8599C145.706 22.0731 145.819 22.2537 145.989 22.362C146.158 22.4702 146.37 22.4972 146.577 22.437C146.784 22.3768 146.97 22.2344 147.093 22.041C147.217 21.8477 147.268 21.6193 147.235 21.406C147.203 21.1928 147.089 21.0121 146.92 20.9039C146.751 20.7957 146.539 20.7687 146.332 20.8289C146.125 20.889 145.939 21.0315 145.816 21.2248Z" fill="#CCE2FF"/>
<path d="M144.296 26.2953C144.172 26.4887 144.121 26.7171 144.154 26.9304C144.186 27.1436 144.3 27.3242 144.469 27.4325C144.638 27.5407 144.85 27.5677 145.057 27.5075C145.264 27.4473 145.45 27.3049 145.574 27.1115C145.697 26.9182 145.748 26.6898 145.716 26.4765C145.683 26.2633 145.57 26.0826 145.401 25.9744C145.231 25.8662 145.02 25.8392 144.812 25.8993C144.605 25.9595 144.419 26.102 144.296 26.2953Z" fill="#CCE2FF"/>
</g>
</g>
<ellipse cx="107.386" cy="119.281" rx="19.386" ry="2.2807" fill="#CCE2FF"/>
<path d="M46.0539 195.344C45.9366 195.109 45.7766 194.848 45.5739 194.56C45.3819 194.261 45.1739 193.968 44.9499 193.68C44.7366 193.381 44.5179 193.104 44.2939 192.848C44.0806 192.581 43.8939 192.357 43.7339 192.176L44.6459 191.408C44.8059 191.568 44.9979 191.776 45.2219 192.032C45.4459 192.288 45.6699 192.555 45.8939 192.832C46.1179 193.109 46.3259 193.387 46.5179 193.664C46.7206 193.931 46.8806 194.16 46.9979 194.352L46.0539 195.344ZM46.5179 200.288C47.6486 199.349 48.6406 198.325 49.4939 197.216C50.3579 196.096 51.1259 194.848 51.7979 193.472H47.5739V192.288H56.5179V193.472H53.1419C52.9606 193.856 52.7686 194.24 52.5659 194.624C52.3633 194.997 52.1553 195.371 51.9419 195.744L52.3739 195.76V203.056H51.1579V196.944C50.0699 198.533 48.7899 199.973 47.3179 201.264L46.5179 200.288ZM53.3019 196.112C53.5579 196.347 53.8353 196.619 54.1339 196.928C54.4433 197.227 54.7579 197.547 55.0779 197.888C55.4086 198.229 55.7339 198.587 56.0539 198.96C56.3846 199.333 56.6993 199.707 56.9979 200.08L56.1819 201.088C55.8939 200.704 55.5846 200.315 55.2539 199.92C54.9339 199.525 54.6086 199.147 54.2779 198.784C53.9579 198.411 53.6433 198.064 53.3339 197.744C53.0353 197.424 52.7633 197.147 52.5179 196.912L53.3019 196.112ZM51.7019 203.888C52.6513 203.909 53.5953 203.909 54.5339 203.888C55.4726 203.867 56.3686 203.829 57.2219 203.776L56.9499 204.976C56.6086 204.987 56.2193 204.997 55.7819 205.008C55.3553 205.019 54.9179 205.029 54.4699 205.04C54.0219 205.051 53.5793 205.056 53.1419 205.056C52.7153 205.056 52.3366 205.051 52.0059 205.04C51.1739 205.019 50.4486 204.987 49.8299 204.944C49.2219 204.901 48.6673 204.811 48.1659 204.672C47.6753 204.533 47.2166 204.336 46.7899 204.08C46.3739 203.824 45.9473 203.472 45.5099 203.024C45.3606 203.195 45.2166 203.36 45.0779 203.52C44.9499 203.669 44.8113 203.829 44.6619 204C44.5233 204.16 44.3686 204.331 44.1979 204.512C44.0273 204.704 43.8299 204.912 43.6059 205.136L42.7579 204.24C43.1953 203.835 43.6059 203.44 43.9899 203.056C44.3739 202.661 44.7153 202.277 45.0139 201.904V197.552H43.2859V196.416H46.1659V202.144C46.5499 202.517 46.9233 202.816 47.2859 203.04C47.6486 203.253 48.0379 203.424 48.4539 203.552C48.8806 203.669 49.3499 203.755 49.8619 203.808C50.3846 203.851 50.9979 203.877 51.7019 203.888ZM62.5399 194.848C62.3799 194.656 62.1826 194.453 61.9479 194.24C61.7133 194.016 61.4679 193.803 61.2119 193.6C60.9559 193.387 60.6999 193.189 60.4439 193.008C60.1986 192.827 59.9799 192.677 59.7879 192.56L60.4279 191.648C60.6199 191.765 60.8386 191.909 61.0839 192.08C61.3399 192.24 61.5959 192.416 61.8519 192.608C62.1079 192.789 62.3533 192.976 62.5879 193.168C62.8226 193.36 63.0253 193.536 63.1959 193.696L62.5399 194.848ZM63.0039 196.496C63.3666 196.261 63.6599 196.037 63.8839 195.824C64.1079 195.611 64.2786 195.392 64.3959 195.168C64.5239 194.944 64.6039 194.704 64.6359 194.448C64.6786 194.192 64.6999 193.904 64.6999 193.584V192.032H70.3639V194.672C70.3639 194.981 70.4119 195.189 70.5079 195.296C70.6146 195.403 70.8386 195.461 71.1799 195.472C71.6599 195.493 72.1453 195.493 72.6359 195.472L72.4919 196.592C71.9159 196.624 71.3453 196.624 70.7799 196.592C70.2039 196.56 69.7773 196.448 69.4999 196.256C69.2333 196.053 69.0999 195.707 69.0999 195.216V193.104H65.9479V194.08C65.9479 194.325 65.9159 194.587 65.8519 194.864C65.7986 195.141 65.6919 195.424 65.5319 195.712C65.3826 196 65.1746 196.288 64.9079 196.576C64.6413 196.864 64.3053 197.136 63.8999 197.392L63.0039 196.496ZM61.7559 198.56C61.5746 198.357 61.3559 198.144 61.0999 197.92C60.8439 197.696 60.5719 197.477 60.2839 197.264C60.0066 197.04 59.7293 196.837 59.4519 196.656C59.1853 196.475 58.9506 196.325 58.7479 196.208L59.4199 195.216C59.6226 195.333 59.8573 195.483 60.1239 195.664C60.4013 195.845 60.6786 196.037 60.9559 196.24C61.2439 196.432 61.5159 196.629 61.7719 196.832C62.0279 197.035 62.2466 197.216 62.4279 197.376L61.7559 198.56ZM72.3319 205.616C71.3399 205.221 70.4493 204.827 69.6599 204.432C68.8813 204.048 68.1719 203.637 67.5319 203.2C66.1879 204.107 64.4759 204.933 62.3959 205.68L61.7239 204.576C62.7159 204.256 63.6066 203.92 64.3959 203.568C65.1959 203.205 65.9159 202.832 66.5559 202.448C66.0013 201.989 65.5053 201.493 65.0679 200.96C64.6306 200.427 64.2253 199.835 63.8519 199.184L64.5719 198.768H63.0679V197.68H71.3399V198.752C71.0519 199.456 70.6733 200.123 70.2039 200.752C69.7346 201.371 69.1533 201.957 68.4599 202.512C69.6439 203.248 71.1319 203.904 72.9239 204.48L72.3319 205.616ZM64.9399 198.768C65.2813 199.376 65.6599 199.931 66.0759 200.432C66.4919 200.933 66.9666 201.392 67.4999 201.808C68.1399 201.339 68.6626 200.853 69.0679 200.352C69.4839 199.851 69.8039 199.323 70.0279 198.768H64.9399ZM62.4759 200.208C62.3693 200.549 62.2199 200.955 62.0279 201.424C61.8466 201.893 61.6493 202.373 61.4359 202.864C61.2226 203.355 61.0039 203.824 60.7799 204.272C60.5559 204.72 60.3533 205.093 60.1719 205.392L59.0519 204.864C59.2333 204.576 59.4359 204.208 59.6599 203.76C59.8946 203.312 60.1186 202.843 60.3319 202.352C60.5559 201.861 60.7639 201.381 60.9559 200.912C61.1479 200.432 61.2973 200.016 61.4039 199.664L61.9959 199.952L62.4759 200.208ZM80.2419 194.064C80.0713 194.352 79.8953 194.635 79.7139 194.912C79.5433 195.189 79.3619 195.461 79.1699 195.728H86.6099V203.632C86.6099 203.952 86.5779 204.213 86.5139 204.416C86.4499 204.619 86.3433 204.779 86.1939 204.896C86.0446 205.024 85.8473 205.12 85.6019 205.184C85.3566 205.259 85.0526 205.317 84.6899 205.36L83.6179 205.488L83.2339 204.336L84.2739 204.256C84.5193 204.235 84.7166 204.208 84.8659 204.176C85.0153 204.155 85.1273 204.112 85.2019 204.048C85.2873 203.984 85.3406 203.893 85.3619 203.776C85.3939 203.659 85.4099 203.504 85.4099 203.312V202.384H78.4499V205.504H77.2659V197.952C76.8926 198.325 76.5033 198.688 76.0979 199.04C75.6926 199.392 75.2606 199.744 74.8019 200.096L74.0179 199.152C75.0206 198.395 75.9166 197.6 76.7059 196.768C77.5059 195.936 78.2099 195.035 78.8179 194.064H74.7059V192.944H79.4419C79.7406 192.357 80.0126 191.733 80.2579 191.072L81.5219 191.344C81.4153 191.621 81.3033 191.893 81.1859 192.16C81.0686 192.427 80.9513 192.688 80.8339 192.944H88.5459V194.064H80.2419ZM85.4099 196.784H78.4499V198.576H85.4099V196.784ZM85.4099 201.344V199.6H78.4499V201.344H85.4099ZM92.9999 195.104C92.9039 194.88 92.7759 194.635 92.6159 194.368C92.4559 194.101 92.2853 193.835 92.1039 193.568C91.9226 193.301 91.7413 193.045 91.5599 192.8C91.3786 192.555 91.2186 192.352 91.0799 192.192L92.0239 191.536C92.1626 191.685 92.3226 191.883 92.5039 192.128C92.6853 192.363 92.8666 192.608 93.0479 192.864C93.2293 193.12 93.3999 193.376 93.5599 193.632C93.7306 193.877 93.8693 194.091 93.9759 194.272L92.9999 195.104ZM99.9919 200.464C100.515 201.125 101.155 201.728 101.912 202.272C102.68 202.816 103.56 203.312 104.552 203.76L103.928 204.832C102.061 203.755 100.6 202.64 99.5439 201.488V205.6H98.4079V201.6C97.9066 202.219 97.3093 202.811 96.6159 203.376C95.9333 203.931 95.1386 204.507 94.2319 205.104L93.5599 204.064C94.5626 203.488 95.4159 202.917 96.1199 202.352C96.8239 201.787 97.4373 201.157 97.9599 200.464H94.1679V199.456H98.4079V198.032H95.0479V191.984H102.968V198.032H99.5439V199.456H104.072V200.464H99.9919ZM96.1679 192.96V194.512H98.4079V192.96H96.1679ZM101.832 192.96H99.5439V194.512H101.832V192.96ZM98.4079 197.056V195.472H96.1679V197.056H98.4079ZM101.832 197.056V195.472H99.5439V197.056H101.832ZM95.0159 202.304C94.9199 202.4 94.7706 202.539 94.5679 202.72C94.3759 202.901 94.1679 203.093 93.9439 203.296C93.7306 203.499 93.5279 203.685 93.3359 203.856C93.1439 204.027 92.9999 204.149 92.9039 204.224C92.8079 204.309 92.6906 204.416 92.5519 204.544C92.4239 204.672 92.3119 204.795 92.2159 204.912L91.4959 204.032C91.6559 203.883 91.7679 203.733 91.8319 203.584C91.9066 203.424 91.9439 203.253 91.9439 203.072V197.424H90.0239V196.272H93.0319V202.688C93.0853 202.645 93.1759 202.565 93.3039 202.448C93.4319 202.32 93.5706 202.187 93.7199 202.048C93.8693 201.899 94.0133 201.755 94.1519 201.616C94.3013 201.467 94.4186 201.349 94.5039 201.264L95.0159 202.304ZM110.83 201.2C110.745 201.051 110.643 200.885 110.526 200.704C110.419 200.523 110.297 200.341 110.158 200.16C110.019 199.968 109.881 199.781 109.742 199.6C109.603 199.408 109.47 199.237 109.342 199.088V205.712H108.318V199.04C108.062 199.712 107.779 200.352 107.47 200.96C107.171 201.568 106.851 202.139 106.51 202.672L105.55 202.016C105.838 201.621 106.11 201.205 106.366 200.768C106.633 200.32 106.878 199.867 107.102 199.408C107.337 198.949 107.545 198.491 107.726 198.032C107.918 197.573 108.083 197.136 108.222 196.72H106.19V195.584H108.318V193.472C107.945 193.547 107.587 193.605 107.246 193.648C106.905 193.691 106.606 193.723 106.35 193.744L106.126 192.64C106.457 192.619 106.851 192.576 107.31 192.512C107.769 192.437 108.233 192.352 108.702 192.256C109.171 192.16 109.625 192.059 110.062 191.952C110.499 191.835 110.873 191.728 111.182 191.632L111.406 192.72C111.139 192.805 110.825 192.896 110.462 192.992C110.11 193.088 109.737 193.179 109.342 193.264V195.584H111.326V196.72H109.342V198.432L109.79 198.048C109.918 198.176 110.062 198.336 110.222 198.528C110.393 198.72 110.563 198.928 110.734 199.152C110.915 199.365 111.081 199.579 111.23 199.792C111.39 199.995 111.518 200.176 111.614 200.336L110.83 201.2ZM118.766 196.304H111.966V192.048H118.766V196.304ZM117.63 193.088H113.054V195.28H117.63V193.088ZM119.966 203.744V204.896H110.638V203.744H114.782V201.872H111.87V200.768H114.782V198.88H111.47V197.776H119.47V198.88H115.918V200.768H118.958V201.872H115.918V203.744H119.966ZM123.7 191.424C123.86 191.584 124.041 191.792 124.244 192.048C124.457 192.293 124.671 192.555 124.884 192.832C125.097 193.109 125.3 193.387 125.492 193.664C125.684 193.931 125.839 194.16 125.956 194.352L124.996 195.28C124.879 195.045 124.724 194.784 124.532 194.496C124.34 194.208 124.137 193.92 123.924 193.632C123.711 193.344 123.497 193.072 123.284 192.816C123.081 192.549 122.9 192.331 122.74 192.16L123.7 191.424ZM128.836 202.576C128.836 202.853 128.852 203.077 128.884 203.248C128.916 203.408 128.98 203.536 129.076 203.632C129.172 203.717 129.305 203.781 129.476 203.824C129.657 203.856 129.892 203.883 130.18 203.904C131.108 203.989 132.036 203.989 132.964 203.904C133.199 203.883 133.391 203.856 133.54 203.824C133.7 203.792 133.828 203.749 133.924 203.696C134.031 203.643 134.111 203.568 134.164 203.472C134.228 203.376 134.276 203.253 134.308 203.104C134.372 202.816 134.409 202.528 134.42 202.24C134.441 201.941 134.463 201.637 134.484 201.328L135.716 201.744C135.695 202.149 135.663 202.523 135.62 202.864C135.577 203.195 135.513 203.536 135.428 203.888C135.385 204.069 135.332 204.229 135.268 204.368C135.204 204.507 135.103 204.624 134.964 204.72C134.825 204.816 134.633 204.896 134.388 204.96C134.143 205.024 133.823 205.072 133.428 205.104C132.191 205.2 130.959 205.2 129.732 205.104C129.316 205.072 128.969 205.019 128.692 204.944C128.425 204.88 128.212 204.768 128.052 204.608C127.903 204.459 127.796 204.251 127.732 203.984C127.668 203.707 127.636 203.349 127.636 202.912V197.104H133.316V193.376H127.188V192.176H134.548V198.304H128.836V202.576ZM124.98 202.896C125.087 202.821 125.236 202.709 125.428 202.56C125.62 202.4 125.812 202.24 126.004 202.08C126.207 201.92 126.383 201.776 126.532 201.648C126.692 201.509 126.799 201.419 126.852 201.376L127.188 202.624C127.103 202.677 126.948 202.789 126.724 202.96C126.5 203.131 126.255 203.317 125.988 203.52C125.732 203.723 125.487 203.909 125.252 204.08C125.017 204.261 124.852 204.389 124.756 204.464C124.639 204.549 124.532 204.64 124.436 204.736C124.351 204.832 124.239 204.96 124.1 205.12L123.332 204.192C123.535 203.989 123.663 203.835 123.716 203.728C123.769 203.621 123.796 203.467 123.796 203.264V197.408H121.62V196.208H124.98V202.896ZM147.354 201.376C147.887 201.824 148.495 202.235 149.178 202.608C149.871 202.971 150.682 203.317 151.61 203.648L150.986 204.72C150.229 204.411 149.551 204.101 148.954 203.792C148.357 203.472 147.818 203.141 147.338 202.8C146.858 202.459 146.426 202.091 146.042 201.696C145.669 201.291 145.322 200.848 145.002 200.368V203.584C145.002 203.925 144.97 204.203 144.906 204.416C144.853 204.629 144.746 204.8 144.586 204.928C144.426 205.056 144.207 205.152 143.93 205.216C143.653 205.291 143.29 205.344 142.842 205.376L141.818 205.456L141.434 204.288L142.602 204.224C142.89 204.203 143.114 204.176 143.274 204.144C143.434 204.112 143.557 204.059 143.642 203.984C143.727 203.899 143.781 203.792 143.802 203.664C143.823 203.525 143.834 203.344 143.834 203.12V198.016H137.674V196.976H148.058V195.472H139.354V194.448H148.058V192.912H138.938V191.856H149.258V196.976H151.402V198.016H145.002V198.288C145.205 198.715 145.423 199.115 145.658 199.488C145.903 199.861 146.181 200.219 146.49 200.56C146.735 200.4 147.002 200.219 147.29 200.016C147.578 199.813 147.861 199.605 148.138 199.392C148.415 199.168 148.677 198.949 148.922 198.736C149.178 198.523 149.397 198.331 149.578 198.16L150.346 199.12C150.175 199.28 149.967 199.461 149.722 199.664C149.487 199.856 149.231 200.053 148.954 200.256C148.687 200.459 148.415 200.656 148.138 200.848C147.861 201.04 147.599 201.216 147.354 201.376ZM141.226 201.104C141.077 200.944 140.89 200.763 140.666 200.56C140.442 200.357 140.213 200.16 139.978 199.968C139.743 199.776 139.514 199.595 139.29 199.424C139.066 199.253 138.874 199.109 138.714 198.992L139.386 198.128C139.546 198.235 139.738 198.373 139.962 198.544C140.186 198.704 140.415 198.875 140.65 199.056C140.895 199.237 141.13 199.424 141.354 199.616C141.589 199.797 141.781 199.957 141.93 200.096L141.226 201.104ZM143.738 201.216C143.397 201.451 142.975 201.728 142.474 202.048C141.973 202.357 141.455 202.672 140.922 202.992C140.389 203.301 139.866 203.6 139.354 203.888C138.842 204.176 138.41 204.405 138.058 204.576L137.402 203.568C137.775 203.408 138.218 203.189 138.73 202.912C139.253 202.624 139.786 202.325 140.33 202.016C140.874 201.696 141.397 201.381 141.898 201.072C142.41 200.752 142.837 200.469 143.178 200.224L143.466 200.736L143.738 201.216ZM167.616 202.128C167.552 202.501 167.488 202.869 167.424 203.232C167.36 203.584 167.264 203.931 167.136 204.272C167.008 204.613 166.827 204.885 166.592 205.088C166.357 205.301 166.096 205.408 165.808 205.408C165.499 205.408 165.211 205.285 164.944 205.04C164.677 204.795 164.411 204.341 164.144 203.68C163.995 203.328 163.867 202.928 163.76 202.48C163.397 202.821 163.024 203.147 162.64 203.456C162.256 203.755 161.861 204.043 161.456 204.32L160.88 203.344C161.851 202.704 162.72 201.995 163.488 201.216C163.392 200.64 163.307 199.995 163.232 199.28C163.157 198.555 163.093 197.723 163.04 196.784H160.864V199.12C161.195 199.013 161.504 198.907 161.792 198.8C162.091 198.693 162.347 198.597 162.56 198.512L162.672 199.136L162.768 199.632C162.523 199.728 162.235 199.84 161.904 199.968C161.573 200.085 161.227 200.203 160.864 200.32V203.552C160.864 203.872 160.832 204.133 160.768 204.336C160.715 204.539 160.619 204.699 160.48 204.816C160.341 204.944 160.149 205.04 159.904 205.104C159.659 205.168 159.355 205.216 158.992 205.248L158.368 205.312L158.016 204.224L158.8 204.16C159.024 204.139 159.2 204.107 159.328 204.064C159.467 204.032 159.568 203.984 159.632 203.92C159.707 203.845 159.755 203.755 159.776 203.648C159.797 203.531 159.808 203.381 159.808 203.2V200.656C159.467 200.763 159.141 200.859 158.832 200.944C158.523 201.029 158.251 201.099 158.016 201.152L157.84 200.016C158.096 199.963 158.395 199.888 158.736 199.792C159.077 199.696 159.435 199.589 159.808 199.472V196.784H157.856V195.664H159.808V193.616C159.552 193.669 159.307 193.717 159.072 193.76C158.837 193.803 158.629 193.829 158.448 193.84L158.272 192.768C158.507 192.757 158.795 192.72 159.136 192.656C159.488 192.581 159.845 192.501 160.208 192.416C160.571 192.32 160.923 192.219 161.264 192.112C161.605 192.005 161.893 191.904 162.128 191.808L162.368 192.88C162.176 192.965 161.947 193.045 161.68 193.12C161.424 193.195 161.152 193.275 160.864 193.36V195.664H162.96C162.949 195.44 162.939 195.216 162.928 194.992C162.917 194.757 162.907 194.517 162.896 194.272C162.875 194.005 162.859 193.696 162.848 193.344C162.837 192.981 162.827 192.64 162.816 192.32C162.805 191.947 162.795 191.563 162.784 191.168L163.84 191.2C163.851 191.509 163.861 191.835 163.872 192.176C163.883 192.475 163.893 192.811 163.904 193.184C163.915 193.547 163.931 193.925 163.952 194.32C163.963 194.555 163.973 194.784 163.984 195.008C163.995 195.232 164.005 195.451 164.016 195.664H167.136V196.784H164.08C164.133 197.456 164.187 198.069 164.24 198.624C164.304 199.179 164.368 199.691 164.432 200.16C165.061 199.381 165.611 198.517 166.08 197.568L167.072 198C166.421 199.301 165.616 200.48 164.656 201.536C164.805 202.229 164.965 202.8 165.136 203.248C165.253 203.557 165.36 203.776 165.456 203.904C165.563 204.032 165.664 204.096 165.76 204.096C165.856 204.096 165.957 204.059 166.064 203.984C166.171 203.899 166.261 203.717 166.336 203.44C166.411 203.141 166.469 202.848 166.512 202.56C166.565 202.261 166.613 201.963 166.656 201.664L167.616 202.128ZM166.048 194.896C165.952 194.704 165.829 194.485 165.68 194.24C165.531 193.995 165.371 193.755 165.2 193.52C165.029 193.275 164.859 193.045 164.688 192.832C164.517 192.608 164.368 192.427 164.24 192.288L165.024 191.648C165.152 191.776 165.301 191.947 165.472 192.16C165.653 192.373 165.829 192.597 166 192.832C166.181 193.056 166.347 193.28 166.496 193.504C166.645 193.728 166.768 193.92 166.864 194.08L166.048 194.896ZM153.872 192.768H157.344V203.12H153.872V192.768ZM154.928 202H156.32V193.904H154.928V202ZM174.278 200.544C173.777 200.544 173.35 200.453 172.998 200.272C172.657 200.08 172.369 199.899 172.134 199.728C171.889 199.547 171.665 199.403 171.462 199.296C171.27 199.179 171.03 199.12 170.742 199.12C170.465 199.12 170.246 199.227 170.086 199.44C169.926 199.653 169.825 199.995 169.782 200.464L168.534 200.368C168.598 199.579 168.822 198.965 169.206 198.528C169.59 198.08 170.102 197.856 170.742 197.856C171.243 197.856 171.659 197.952 171.99 198.144C172.331 198.325 172.625 198.501 172.87 198.672C172.998 198.768 173.11 198.853 173.206 198.928C173.313 199.003 173.419 199.067 173.526 199.12C173.633 199.173 173.745 199.216 173.862 199.248C173.99 199.269 174.129 199.28 174.278 199.28C174.545 199.28 174.758 199.173 174.918 198.96C175.078 198.747 175.179 198.405 175.222 197.936L176.47 198.032C176.406 198.821 176.182 199.44 175.798 199.888C175.425 200.325 174.918 200.544 174.278 200.544Z" fill="#646A73"/>
<defs>
<filter id="filter0_d_1437_2950" x="64.3819" y="5.49483" width="82.5449" height="75.6477" filterUnits="userSpaceOnUse" color-interpolation-filters="sRGB">
<feFlood flood-opacity="0" result="BackgroundImageFix"/>
<feColorMatrix in="SourceAlpha" type="matrix" values="0 0 0 0 0 0 0 0 0 0 0 0 0 0 0 0 0 0 127 0" result="hardAlpha"/>
<feOffset dy="0.222727"/>
<feGaussianBlur stdDeviation="0.556818"/>
<feComposite in2="hardAlpha" operator="out"/>
<feColorMatrix type="matrix" values="0 0 0 0 0.156366 0 0 0 0 0.188211 0 0 0 0 0.793269 0 0 0 0.21 0"/>
<feBlend mode="normal" in2="BackgroundImageFix" result="effect1_dropShadow_1437_2950"/>
<feBlend mode="normal" in="SourceGraphic" in2="effect1_dropShadow_1437_2950" result="shape"/>
</filter>
<clipPath id="bgblur_1_1437_2950_clip_path" transform="translate(-64.3819 -5.49483)"><path d="M124.695 20.7539L81.1454 27.0814C80.1792 27.2218 79.5216 28.0793 79.6328 29.0536L83.5295 63.182C83.6407 64.1563 84.4837 64.9221 85.4684 64.9434L129.85 65.9028C130.957 65.9267 131.8 65.0074 131.675 63.9116L126.946 22.4962C126.821 21.4004 125.782 20.596 124.695 20.7539Z"/>
</clipPath><clipPath id="bgblur_2_1437_2950_clip_path" transform="translate(-54.0772 -48.4979)"><path fill-rule="evenodd" clip-rule="evenodd" d="M69.3164 63.9444V94.4085L102.121 109.485L102.285 63.7372L69.3164 63.9444Z"/>
</clipPath><filter id="filter2_di_1437_2950" x="86.8819" y="48.4461" width="76.041" height="76.2782" filterUnits="userSpaceOnUse" color-interpolation-filters="sRGB">
<feFlood flood-opacity="0" result="BackgroundImageFix"/>
<feColorMatrix in="SourceAlpha" type="matrix" values="0 0 0 0 0 0 0 0 0 0 0 0 0 0 0 0 0 0 127 0" result="hardAlpha"/>
<feOffset dx="-0.4"/>
<feGaussianBlur stdDeviation="0.5"/>
<feComposite in2="hardAlpha" operator="out"/>
<feColorMatrix type="matrix" values="0 0 0 0 0.1875 0 0 0 0 0.620833 0 0 0 0 1 0 0 0 0.09 0"/>
<feBlend mode="normal" in2="BackgroundImageFix" result="effect1_dropShadow_1437_2950"/>
<feBlend mode="normal" in="SourceGraphic" in2="effect1_dropShadow_1437_2950" result="shape"/>
<feColorMatrix in="SourceAlpha" type="matrix" values="0 0 0 0 0 0 0 0 0 0 0 0 0 0 0 0 0 0 127 0" result="hardAlpha"/>
<feOffset dy="2.53987"/>
<feGaussianBlur stdDeviation="2.53987"/>
<feComposite in2="hardAlpha" operator="arithmetic" k2="-1" k3="1"/>
<feColorMatrix type="matrix" values="0 0 0 0 1 0 0 0 0 1 0 0 0 0 1 0 0 0 0.1 0"/>
<feBlend mode="normal" in2="shape" result="effect2_innerShadow_1437_2950"/>
</filter>
<clipPath id="bgblur_3_1437_2950_clip_path" transform="translate(-86.8819 -48.4461)"><path fill-rule="evenodd" clip-rule="evenodd" d="M102.121 109.485L102.121 63.6853L147.685 64.4106L147.109 93.8903L102.121 109.485Z"/>
</clipPath><filter id="filter3_di_1437_2950" x="43.6631" y="30.2608" width="73.9003" height="68.0405" filterUnits="userSpaceOnUse" color-interpolation-filters="sRGB">
<feFlood flood-opacity="0" result="BackgroundImageFix"/>
<feColorMatrix in="SourceAlpha" type="matrix" values="0 0 0 0 0 0 0 0 0 0 0 0 0 0 0 0 0 0 127 0" result="hardAlpha"/>
<feOffset dy="0.222727"/>
<feGaussianBlur stdDeviation="0.556818"/>
<feComposite in2="hardAlpha" operator="out"/>
<feColorMatrix type="matrix" values="0 0 0 0 0.188235 0 0 0 0 0.619608 0 0 0 0 1 0 0 0 0.21 0"/>
<feBlend mode="normal" in2="BackgroundImageFix" result="effect1_dropShadow_1437_2950"/>
<feBlend mode="normal" in="SourceGraphic" in2="effect1_dropShadow_1437_2950" result="shape"/>
<feColorMatrix in="SourceAlpha" type="matrix" values="0 0 0 0 0 0 0 0 0 0 0 0 0 0 0 0 0 0 127 0" result="hardAlpha"/>
<feOffset dy="2.53987"/>
<feGaussianBlur stdDeviation="2.53987"/>
<feComposite in2="hardAlpha" operator="arithmetic" k2="-1" k3="1"/>
<feColorMatrix type="matrix" values="0 0 0 0 1 0 0 0 0 1 0 0 0 0 1 0 0 0 0.1 0"/>
<feBlend mode="normal" in2="shape" result="effect2_innerShadow_1437_2950"/>
</filter>
<clipPath id="bgblur_4_1437_2950_clip_path" transform="translate(-43.6631 -30.2608)"><path fill-rule="evenodd" clip-rule="evenodd" d="M70.4982 45.5001L58.9023 65.2914L90.1838 83.0621L102.326 63.0118L70.4982 45.5001Z"/>
</clipPath><filter id="filter4_di_1437_2950" x="87.0459" y="30.7608" width="80.6113" height="71.1672" filterUnits="userSpaceOnUse" color-interpolation-filters="sRGB">
<feFlood flood-opacity="0" result="BackgroundImageFix"/>
<feColorMatrix in="SourceAlpha" type="matrix" values="0 0 0 0 0 0 0 0 0 0 0 0 0 0 0 0 0 0 127 0" result="hardAlpha"/>
<feOffset dx="-1" dy="0.222727"/>
<feGaussianBlur stdDeviation="0.556818"/>
<feComposite in2="hardAlpha" operator="out"/>
<feColorMatrix type="matrix" values="0 0 0 0 0.188235 0 0 0 0 0.619608 0 0 0 0 1 0 0 0 0.2 0"/>
<feBlend mode="normal" in2="BackgroundImageFix" result="effect1_dropShadow_1437_2950"/>
<feBlend mode="normal" in="SourceGraphic" in2="effect1_dropShadow_1437_2950" result="shape"/>
<feColorMatrix in="SourceAlpha" type="matrix" values="0 0 0 0 0 0 0 0 0 0 0 0 0 0 0 0 0 0 127 0" result="hardAlpha"/>
<feOffset dy="2.53987"/>
<feGaussianBlur stdDeviation="2.53987"/>
<feComposite in2="hardAlpha" operator="arithmetic" k2="-1" k3="1"/>
<feColorMatrix type="matrix" values="0 0 0 0 1 0 0 0 0 1 0 0 0 0 1 0 0 0 0.1 0"/>
<feBlend mode="normal" in2="shape" result="effect2_innerShadow_1437_2950"/>
</filter>
<clipPath id="bgblur_5_1437_2950_clip_path" transform="translate(-87.0459 -30.7608)"><path fill-rule="evenodd" clip-rule="evenodd" d="M145.499 46.0001L102.285 62.96L107.06 86.6888L152.418 66.0685L145.499 46.0001Z"/>
</clipPath><linearGradient id="paint0_linear_1437_2950" x1="109.957" y1="36.5" x2="109.78" y2="173" gradientUnits="userSpaceOnUse">
<stop stop-color="#7BB4FF" stop-opacity="0.58"/>
<stop offset="1" stop-color="white" stop-opacity="0"/>
</linearGradient>
<linearGradient id="paint1_linear_1437_2950" x1="97.0786" y1="37.6333" x2="116.514" y2="42.6698" gradientUnits="userSpaceOnUse">
<stop stop-color="white"/>
<stop offset="1" stop-color="white"/>
</linearGradient>
<clipPath id="clip0_1437_2950">
<rect width="107" height="111" fill="white" transform="translate(58)"/>
</clipPath>
<clipPath id="clip6_1437_2950">
<rect width="27.6366" height="27.27" fill="white" transform="translate(141.68) rotate(32.5727)"/>
</clipPath>
</defs>
</svg>
